<svg viewBox="0 0 512 512" xmlns="http://www.w3.org/2000/svg"><path d="M376 310.08v-9.44a6.64 6.64 0 0 0-6.64-6.64H288v-14.63q2.38-1.06 4.7-2.3a77.76 77.76 0 0 0 41.12-62.15c.2-2.2.3-4.43.3-6.81v-11.05a9.74 9.74 0 0 0 5.52-7.77l.48-4.57 7.36-70a92 92 0 1 0-183 0l7.36 70 .48 4.57a9.74 9.74 0 0 0 5.52 7.77v11.05c0 2.39.1 4.61.3 6.74a77.75 77.75 0 0 0 41.11 62.21q2.31 1.24 4.71 2.31V294h-81.32a6.64 6.64 0 0 0-6.64 6.64v9.44A50 50 0 0 0 88 360v132a8 8 0 0 0 8 8h48v-70h16v70h88V286h2.2c1.92.14 3.86.23 5.8.23s3.88-.09 5.8-.23h2.2v214h88v-70h16v70h48a8 8 0 0 0 8-8V360a50 50 0 0 0-48-49.92ZM182.09 128.84l15.91-1.68 2.53 24-15.91 1.68Zm17.44-74.59L211.42 65a59.3 59.3 0 0 0-15.08 46.42l-15.91 1.68a75.12 75.12 0 0 1 19.1-58.85Zm-1.43 158.82c-.15-1.57-.22-3.2-.22-5V208h116.24v.12c0 1.76-.07 3.39-.22 5a57.9 57.9 0 0 1-30.61 46.29 58.14 58.14 0 0 1-54.59 0 57.89 57.89 0 0 1-30.6-46.34ZM296 470h-16v-16h16Zm0-40h-16v-16h16Zm0-40h-16v-16h16Zm0-40h-16v-16h16Z" fill="#4f8533" class="fill-000000"></path></svg>